<?xml version="1.0" encoding="utf-8"?>
<!-- Generator: Adobe Illustrator 15.0.0, SVG Export Plug-In . SVG Version: 6.00 Build 0)  -->

<svg version="1.1" id="Layer_1" xmlns="http://www.w3.org/2000/svg" xmlns:xlink="http://www.w3.org/1999/xlink" x="0px" y="0px"
	 width="80px" height="80px" viewBox="0 0 80 80" enable-background="new 0 0 80 80" xml:space="preserve">
<g>
	<g>
		<g>
			<g>
				<g>
					<path fill="#ECF0F1" d="M15.3,72.1c-3.4,0-4.6-1.1-4.6-4.5V13.5L22.6,1.1h36.6c3.4,0,4.6,1.1,4.6,4.5v61.9
						c0,3.4-1.2,4.5-4.6,4.5H15.3z"/>
					<path fill="#BDC3C7" d="M59.3,1.6c3.1,0,4.1,0.9,4.1,4v61.9c0,3.1-0.9,4-4.1,4H15.3c-3.1,0-4.1-0.9-4.1-4V13.7L22.8,1.6H59.3
						 M59.3,0.6H22.4L10.3,13.3v54.3c0,3.7,1.4,5,5.1,5h43.9c3.7,0,5.1-1.4,5.1-5V5.6C64.3,2,62.9,0.6,59.3,0.6L59.3,0.6z"/>
				</g>
			</g>
			<polygon fill="#3498DB" points="22.4,13.3 10.3,13.3 22.4,0.6 			"/>
			<polygon fill="#BDC3C7" points="22.4,0.6 34.5,0.6 22.4,13.3 			"/>
		</g>
	</g>
	<g>
		<path fill-rule="evenodd" clip-rule="evenodd" fill="#2980B9" d="M30.4,25.7l11.7-0.1v2.9H30.4V25.7z"/>
		<path fill-rule="evenodd" clip-rule="evenodd" fill="#2980B9" d="M30.3,20.7l27.2-0.1v2.9H30.3V20.7z"/>
		<path fill-rule="evenodd" clip-rule="evenodd" fill="#E74C3C" d="M19.2,20.6h8.4V29h-8.4V20.6z"/>
	</g>
	<g>
		<path fill-rule="evenodd" clip-rule="evenodd" fill="#2980B9" d="M30.4,38.6l11.7-0.1v2.9H30.4V38.6z"/>
		<path fill-rule="evenodd" clip-rule="evenodd" fill="#2980B9" d="M30.3,33.6l27.2-0.1v2.9H30.3V33.6z"/>
		<path fill-rule="evenodd" clip-rule="evenodd" fill="#E74C3C" d="M19.2,33.6h8.4v8.4h-8.4V33.6z"/>
	</g>
	<g>
		<path fill-rule="evenodd" clip-rule="evenodd" fill="#2980B9" d="M30.4,52.1L42.1,52V55H30.4V52.1z"/>
		<path fill-rule="evenodd" clip-rule="evenodd" fill="#2980B9" d="M30.3,47.1L57.5,47V50H30.3V47.1z"/>
		<path fill-rule="evenodd" clip-rule="evenodd" fill="#E74C3C" d="M19.2,47h8.4v8.4h-8.4V47z"/>
	</g>
	<g>
		<path fill="#2C3E50" d="M61.7,52.8c0,4.8-3.8,8.7-8.6,8.7c-4.7,0-8.6-3.9-8.6-8.7c0-4.8,3.8-8.7,8.6-8.7
			C57.9,44,61.7,48,61.7,52.8z"/>
		<path fill="#2C3E50" d="M69.7,79.4v-9.2c0-3.3-2.6-5.9-5.8-5.9h-2.4l-6.1,5.8h-4.3l-6.3-5.8h-2.5c-3.2,0-5.8,2.7-5.8,5.9v9.2H69.7
			z"/>
	</g>
</g>
</svg>
