<?xml version="1.0" encoding="utf-8"?>
<!-- Generator: Adobe Illustrator 15.0.0, SVG Export Plug-In . SVG Version: 6.00 Build 0)  -->

<svg version="1.1" id="Layer_1" xmlns="http://www.w3.org/2000/svg" xmlns:xlink="http://www.w3.org/1999/xlink" x="0px" y="0px"
	 width="80px" height="80px" viewBox="0 0 80 80" enable-background="new 0 0 80 80" xml:space="preserve">
<g>
	<g>
		<path fill="#E5B451" d="M42.1,18.9c0,8.8-6.9,19-13.6,19c-6.7,0-13.6-10.2-13.6-19c0-8.8,6.9-14.4,13.6-14.4
			C35.1,4.5,42.1,10.1,42.1,18.9z"/>
		<path fill="#2C3E50" d="M55.1,59c-0.3-5.6-1.4-13.5-2.7-14.5c-2.7-4.3-7.7-7.8-14-9.6c-3.8,5.3-7.9,5.9-10.1,5.9
			c-2.5,0-6.4-0.7-10.1-5.7C12,37,7.1,40.4,4.6,44.8c-1.3,1-2.4,8.8-2.8,14.2H55.1z"/>
		<rect y="59" fill="#2C3E50" width="57" height="2"/>
	</g>
	<rect x="43" y="70" fill="#3E5466" width="15" height="4"/>
	<rect x="23" y="29" fill="#FFFFFF" stroke="#3E5466" stroke-width="2" stroke-miterlimit="10" width="56" height="40"/>
	<rect x="41" y="74" fill="#3E5466" width="19" height="1"/>
</g>
<g>
	<circle fill="#FFFFFF" cx="60.2" cy="42.8" r="3.9"/>
	<path fill="#34495E" d="M69,42l-1.4-0.6l-0.3-1l1.1-1.3c0-0.2,0-0.2,0-0.3l-0.5-1c-0.2-0.2-0.3-0.3-0.5-0.3l-1.6,0.3L65.2,37
		l0.3-1.6c0-0.2,0-0.2-0.2-0.3l-1-0.5c-0.2-0.2-0.3-0.2-0.5-0.2l-1.1,1.1l-1.1-0.3l-0.5-1.6c0-0.2-0.2-0.2-0.3-0.2h-1.1
		c-0.2,0-0.3,0-0.3,0.2l-0.6,1.4l-1,0.3l-1.3-1.1c-0.2,0-0.2,0-0.3,0l-1,0.5C55.2,35,55,35.1,55,35.3l0.3,1.6l-0.8,0.6l-1.6-0.3
		c-0.2,0-0.2,0-0.3,0.2l-0.5,1C52,38.5,52,38.6,52,38.8l1.1,1.1L52.8,41l-1.6,0.5c-0.2,0-0.2,0.2-0.2,0.3v1.1c0,0.2,0,0.3,0.2,0.3
		l1.4,0.6l0.3,1l-1.1,1.3c0,0.2,0,0.2,0,0.3l0.5,1c0.2,0.2,0.3,0.3,0.5,0.3l1.6-0.3l0.6,0.8l-0.3,1.6c0,0.2,0,0.2,0.2,0.3l1,0.5
		c0.2,0.2,0.3,0.2,0.5,0.2l1.1-1.1l1.1,0.3l0.5,1.6c0,0.2,0.2,0.2,0.3,0.2h1.1c0.2,0,0.3,0,0.3-0.2l0.6-1.4l1-0.3l1.3,1.1
		c0.2,0,0.2,0,0.3,0l1-0.5c0.2-0.2,0.3-0.3,0.3-0.5l-0.3-1.6l0.8-0.6l1.6,0.3c0.2,0,0.2,0,0.3-0.2l0.5-1c0.2-0.2,0.2-0.3,0.2-0.5
		l-1.1-1.1l0.3-1.1l1.6-0.5c0.2,0,0.2-0.2,0.2-0.3v-1.1C69.2,42.1,69.2,42,69,42z M60.1,45.5c-1.6,0-2.9-1.3-2.9-2.9
		c0-1.6,1.3-2.9,2.9-2.9c1.6,0,2.9,1.3,2.9,2.9C63,44.2,61.7,45.5,60.1,45.5z"/>
</g>
<g>
	<g>
		<rect x="31.9" y="60.3" fill="#2980B9" width="17.1" height="2.9"/>
		<rect x="31.9" y="54.1" fill="#2980B9" width="17.1" height="2.9"/>
		<rect x="53.6" y="60.3" fill="#2980B9" width="17.1" height="2.9"/>
		<rect x="53.6" y="54.1" fill="#2980B9" width="17.1" height="2.9"/>
		<rect x="31.9" y="46.7" fill="#2980B9" width="12.4" height="2.9"/>
		<rect x="31.9" y="39.3" fill="#2980B9" width="12.3" height="2.9"/>
	</g>
</g>
</svg>
